<mxfile host="Electron" modified="2023-05-16T04:06:46.103Z" agent="Mozilla/5.0 (Windows NT 10.0; Win64; x64) AppleWebKit/537.36 (KHTML, like Gecko) draw.io/21.2.8 Chrome/112.0.5615.165 Electron/24.2.0 Safari/537.36" etag="NF_gHn1PKh3PIBzuiNPj" version="21.2.8" type="device">
  <diagram name="Page-1" id="8ctXv81DTyJofQycZeRD">
    <mxGraphModel dx="1190" dy="400" grid="0" gridSize="10" guides="1" tooltips="1" connect="1" arrows="1" fold="1" page="0" pageScale="1" pageWidth="850" pageHeight="1100" math="0" shadow="0">
      <root>
        <mxCell id="0" />
        <mxCell id="1" parent="0" />
        <mxCell id="cFYATt3_MEIz_HS9wbKV-35" style="edgeStyle=orthogonalEdgeStyle;rounded=0;orthogonalLoop=1;jettySize=auto;html=1;" edge="1" parent="1" source="cFYATt3_MEIz_HS9wbKV-4">
          <mxGeometry relative="1" as="geometry">
            <mxPoint x="140" y="169" as="targetPoint" />
            <Array as="points">
              <mxPoint x="255" y="145" />
              <mxPoint x="140" y="145" />
              <mxPoint x="140" y="169" />
            </Array>
          </mxGeometry>
        </mxCell>
        <mxCell id="cFYATt3_MEIz_HS9wbKV-4" value="Kafka-topic" style="shape=step;perimeter=stepPerimeter;whiteSpace=wrap;html=1;fixedSize=1;" vertex="1" parent="1">
          <mxGeometry x="150" y="70" width="210" height="50" as="geometry" />
        </mxCell>
        <mxCell id="cFYATt3_MEIz_HS9wbKV-18" style="edgeStyle=orthogonalEdgeStyle;rounded=0;orthogonalLoop=1;jettySize=auto;html=1;exitX=1;exitY=1;exitDx=0;exitDy=0;entryX=0.506;entryY=-0.063;entryDx=0;entryDy=0;entryPerimeter=0;" edge="1" parent="1" source="cFYATt3_MEIz_HS9wbKV-1" target="cFYATt3_MEIz_HS9wbKV-15">
          <mxGeometry relative="1" as="geometry" />
        </mxCell>
        <mxCell id="cFYATt3_MEIz_HS9wbKV-36" style="edgeStyle=orthogonalEdgeStyle;rounded=0;orthogonalLoop=1;jettySize=auto;html=1;exitX=0;exitY=0;exitDx=0;exitDy=0;" edge="1" parent="1" source="cFYATt3_MEIz_HS9wbKV-1" target="cFYATt3_MEIz_HS9wbKV-7">
          <mxGeometry relative="1" as="geometry" />
        </mxCell>
        <mxCell id="cFYATt3_MEIz_HS9wbKV-1" value="Service 1" style="rounded=1;whiteSpace=wrap;html=1;" vertex="1" parent="1">
          <mxGeometry x="40" y="170" width="120" height="60" as="geometry" />
        </mxCell>
        <mxCell id="cFYATt3_MEIz_HS9wbKV-25" style="edgeStyle=orthogonalEdgeStyle;rounded=0;orthogonalLoop=1;jettySize=auto;html=1;exitX=1;exitY=1;exitDx=0;exitDy=0;entryX=0.578;entryY=0.07;entryDx=0;entryDy=0;entryPerimeter=0;" edge="1" parent="1" source="cFYATt3_MEIz_HS9wbKV-3" target="cFYATt3_MEIz_HS9wbKV-22">
          <mxGeometry relative="1" as="geometry" />
        </mxCell>
        <mxCell id="cFYATt3_MEIz_HS9wbKV-27" style="edgeStyle=orthogonalEdgeStyle;rounded=0;orthogonalLoop=1;jettySize=auto;html=1;entryX=0.5;entryY=0;entryDx=0;entryDy=0;" edge="1" parent="1" source="cFYATt3_MEIz_HS9wbKV-3" target="cFYATt3_MEIz_HS9wbKV-26">
          <mxGeometry relative="1" as="geometry" />
        </mxCell>
        <mxCell id="cFYATt3_MEIz_HS9wbKV-34" style="edgeStyle=orthogonalEdgeStyle;rounded=0;orthogonalLoop=1;jettySize=auto;html=1;entryX=0.907;entryY=0.971;entryDx=0;entryDy=0;entryPerimeter=0;" edge="1" parent="1" source="cFYATt3_MEIz_HS9wbKV-3" target="cFYATt3_MEIz_HS9wbKV-4">
          <mxGeometry relative="1" as="geometry" />
        </mxCell>
        <mxCell id="cFYATt3_MEIz_HS9wbKV-3" value="Service 2" style="rounded=1;whiteSpace=wrap;html=1;" vertex="1" parent="1">
          <mxGeometry x="280" y="170" width="120" height="60" as="geometry" />
        </mxCell>
        <mxCell id="cFYATt3_MEIz_HS9wbKV-7" value="Another-Kafka-topic" style="shape=step;perimeter=stepPerimeter;whiteSpace=wrap;html=1;fixedSize=1;" vertex="1" parent="1">
          <mxGeometry x="-170" y="70" width="200" height="50" as="geometry" />
        </mxCell>
        <mxCell id="cFYATt3_MEIz_HS9wbKV-15" value="Log&lt;br&gt;Camel-Comp." style="ellipse;whiteSpace=wrap;html=1;" vertex="1" parent="1">
          <mxGeometry x="120" y="250" width="80" height="60" as="geometry" />
        </mxCell>
        <mxCell id="cFYATt3_MEIz_HS9wbKV-17" style="edgeStyle=orthogonalEdgeStyle;rounded=0;orthogonalLoop=1;jettySize=auto;html=1;entryX=0;entryY=1;entryDx=0;entryDy=0;" edge="1" parent="1" source="cFYATt3_MEIz_HS9wbKV-16" target="cFYATt3_MEIz_HS9wbKV-1">
          <mxGeometry relative="1" as="geometry" />
        </mxCell>
        <mxCell id="cFYATt3_MEIz_HS9wbKV-16" value="Timer&lt;br&gt;Camel-Comp." style="ellipse;whiteSpace=wrap;html=1;" vertex="1" parent="1">
          <mxGeometry y="250" width="80" height="60" as="geometry" />
        </mxCell>
        <mxCell id="cFYATt3_MEIz_HS9wbKV-19" value="Bean Transform" style="text;html=1;align=center;verticalAlign=middle;resizable=0;points=[];autosize=1;strokeColor=none;fillColor=none;" vertex="1" parent="1">
          <mxGeometry x="45" y="230" width="110" height="30" as="geometry" />
        </mxCell>
        <mxCell id="cFYATt3_MEIz_HS9wbKV-24" style="edgeStyle=orthogonalEdgeStyle;rounded=0;orthogonalLoop=1;jettySize=auto;html=1;entryX=0.042;entryY=1;entryDx=0;entryDy=0;entryPerimeter=0;" edge="1" parent="1" source="cFYATt3_MEIz_HS9wbKV-20" target="cFYATt3_MEIz_HS9wbKV-3">
          <mxGeometry relative="1" as="geometry" />
        </mxCell>
        <mxCell id="cFYATt3_MEIz_HS9wbKV-20" value="" style="html=1;verticalLabelPosition=bottom;align=center;labelBackgroundColor=#ffffff;verticalAlign=top;strokeWidth=2;strokeColor=#0080F0;shadow=0;dashed=0;shape=mxgraph.ios7.icons.folder;" vertex="1" parent="1">
          <mxGeometry x="250" y="255" width="70" height="65" as="geometry" />
        </mxCell>
        <mxCell id="cFYATt3_MEIz_HS9wbKV-21" value="File" style="whiteSpace=wrap;html=1;shape=mxgraph.basic.document" vertex="1" parent="1">
          <mxGeometry x="270" y="270" width="30" height="35" as="geometry" />
        </mxCell>
        <mxCell id="cFYATt3_MEIz_HS9wbKV-22" value="" style="html=1;verticalLabelPosition=bottom;align=center;labelBackgroundColor=#ffffff;verticalAlign=top;strokeWidth=2;strokeColor=#0080F0;shadow=0;dashed=0;shape=mxgraph.ios7.icons.folder;" vertex="1" parent="1">
          <mxGeometry x="360" y="255" width="70" height="65" as="geometry" />
        </mxCell>
        <mxCell id="cFYATt3_MEIz_HS9wbKV-23" value="File" style="whiteSpace=wrap;html=1;shape=mxgraph.basic.document" vertex="1" parent="1">
          <mxGeometry x="380" y="270" width="30" height="35" as="geometry" />
        </mxCell>
        <mxCell id="cFYATt3_MEIz_HS9wbKV-26" value="Log&lt;br&gt;Camel-Comp." style="ellipse;whiteSpace=wrap;html=1;" vertex="1" parent="1">
          <mxGeometry x="300" y="360" width="80" height="60" as="geometry" />
        </mxCell>
        <mxCell id="cFYATt3_MEIz_HS9wbKV-28" value="Log content of file" style="text;html=1;align=center;verticalAlign=middle;resizable=0;points=[];autosize=1;strokeColor=none;fillColor=none;" vertex="1" parent="1">
          <mxGeometry x="280" y="320" width="120" height="30" as="geometry" />
        </mxCell>
        <mxCell id="cFYATt3_MEIz_HS9wbKV-30" value="transfer file&lt;br&gt;&amp;nbsp;after modify it" style="text;html=1;align=center;verticalAlign=middle;resizable=0;points=[];autosize=1;strokeColor=none;fillColor=none;" vertex="1" parent="1">
          <mxGeometry x="388" y="209" width="93" height="41" as="geometry" />
        </mxCell>
        <mxCell id="cFYATt3_MEIz_HS9wbKV-33" value="modifing msg&lt;br&gt;then send it&lt;br&gt;to&lt;br&gt;another topic" style="text;html=1;align=center;verticalAlign=middle;resizable=0;points=[];autosize=1;strokeColor=none;fillColor=none;" vertex="1" parent="1">
          <mxGeometry x="40" y="100" width="90" height="70" as="geometry" />
        </mxCell>
      </root>
    </mxGraphModel>
  </diagram>
</mxfile>
